<svg xmlns="http://www.w3.org/2000/svg" viewBox="0 0 145.65 55.6"><defs><style>.cls-1{fill:#005e85;}.cls-2{fill:#00af7c;}</style></defs><g id="Layer_2" data-name="Layer 2"><g id="Layer_1-2" data-name="Layer 1"><polygon class="cls-1" points="22.14 37.02 22.14 37.02 22.14 37.02 22.14 37.02"/><path class="cls-1" d="M45.2,36.7a1.18,1.18,0,0,1-1-.62,2.18,2.18,0,0,1-.38-1.33,1.63,1.63,0,0,1,.38-1.15,1.37,1.37,0,0,1,.93-.39h0a14,14,0,0,1,1.9.17V32.19a14.9,14.9,0,0,0-1.9-.16h0a3.22,3.22,0,0,0-1.06.19,2.44,2.44,0,0,0-.88.53,2.31,2.31,0,0,0-.57.86,2.93,2.93,0,0,0-.21,1.14,1.91,1.91,0,0,0,.07.52,3,3,0,0,0,.17.5,3.61,3.61,0,0,0,.23.44,4.48,4.48,0,0,0,.38.44v.05H36.79a1,1,0,0,1-.37-.07.94.94,0,0,1-.33-.2,1.17,1.17,0,0,1-.23-.36,1.35,1.35,0,0,1-.09-.52V29.36l-1.41.55v5.87a1.17,1.17,0,0,1-.08.45.89.89,0,0,1-.21.28.72.72,0,0,1-.27.15,1.27,1.27,0,0,1-.26,0H32.42V32l-1.4.55V36.7H29.69v1.2H33.4a3.63,3.63,0,0,0,.44,0,2.64,2.64,0,0,0,.52-.1,2.92,2.92,0,0,0,.53-.21,2,2,0,0,0,.49-.39,1.89,1.89,0,0,0,.67.51,2,2,0,0,0,.88.21H47.76V36.7Z"/><path class="cls-1" d="M55.55,35.55V29.36l-1.4.55v5.87a1,1,0,0,1-.09.45.67.67,0,0,1-.21.28.72.72,0,0,1-.27.15,1.27,1.27,0,0,1-.26,0H52.21V32l-1.41.55V36.7H49.47v1.21h3.71l.44,0a2.51,2.51,0,0,0,.52-.1,2.41,2.41,0,0,0,.54-.21C55.15,37.29,55.55,36.77,55.55,35.55Z"/><polygon class="cls-1" points="58.63 29.36 57.27 29.9 57.27 37.91 58.63 37.91 58.63 29.36"/><path class="cls-1" d="M66.92,32.78a2.44,2.44,0,0,0-.93-.56,4,4,0,0,0-2.43,0,2.44,2.44,0,0,0-.93.56,2.37,2.37,0,0,0-.6.92A3.52,3.52,0,0,0,61.82,35,3.58,3.58,0,0,0,62,36.25a2.45,2.45,0,0,0,.6.92,2.57,2.57,0,0,0,.93.56,4.19,4.19,0,0,0,2.43,0,2.57,2.57,0,0,0,.93-.56,2.45,2.45,0,0,0,.6-.92A3.57,3.57,0,0,0,67.74,35a3.51,3.51,0,0,0-.22-1.27A2.37,2.37,0,0,0,66.92,32.78Zm-1,3.44a1.63,1.63,0,0,1-2.33,0,1.91,1.91,0,0,1-.4-1.25,1.88,1.88,0,0,1,.4-1.24,1.63,1.63,0,0,1,2.33,0,1.88,1.88,0,0,1,.4,1.24A1.91,1.91,0,0,1,65.94,36.22Z"/><path class="cls-1" d="M70.33,40.26a3.61,3.61,0,0,0,.47-2V32l-1.36.53v5.68a4.63,4.63,0,0,1-.06.83,1.48,1.48,0,0,1-.16.49.59.59,0,0,1-.27.23,1,1,0,0,1-.35.06h-.9V41h1A1.74,1.74,0,0,0,70.33,40.26Z"/><polygon class="cls-1" points="73.87 29.36 72.51 29.91 72.51 37.79 73.87 37.79 73.87 29.36"/><path class="cls-1" d="M76.5,40.26a3.61,3.61,0,0,0,.47-2V32l-1.36.54v5.66a4.63,4.63,0,0,1-.06.83,1.48,1.48,0,0,1-.16.49.59.59,0,0,1-.27.23,1,1,0,0,1-.35.06h-.9V41h1A1.74,1.74,0,0,0,76.5,40.26Z"/><polygon class="cls-1" points="76.97 29.36 76.97 31 75.61 30.46 75.61 29.36 76.97 29.36"/><polygon class="cls-1" points="66.75 29.36 66.75 31 65.39 30.46 65.39 29.36 66.75 29.36"/><polygon class="cls-1" points="64.16 29.36 64.16 31 62.8 30.46 62.8 29.36 64.16 29.36"/><path class="cls-1" d="M51.58,40.49a.42.42,0,0,1-.34-.13.52.52,0,0,1-.12-.36.54.54,0,0,1,.11-.35.35.35,0,0,1,.28-.12,5.58,5.58,0,0,1,.71.06v-.44a5.58,5.58,0,0,0-.71-.06,1,1,0,0,0-.71.22.79.79,0,0,0-.25.63.86.86,0,0,0,.05.27,1.38,1.38,0,0,0,.14.24v0h-.4V41h2.12v-.48Z"/><path class="cls-1" d="M84.15,34.05a2.81,2.81,0,0,0-.46-1.1,2,2,0,0,0-.88-.68A3.41,3.41,0,0,0,81.45,32a3.32,3.32,0,0,0-1.35.25,2.21,2.21,0,0,0-.85.67,2.48,2.48,0,0,0-.44,1,5.86,5.86,0,0,0-.13,1.26,2.92,2.92,0,0,0,.21,1.13,2.59,2.59,0,0,0,.59.86,2.45,2.45,0,0,0,.9.56,3.27,3.27,0,0,0,1.15.19h.38a4.2,4.2,0,0,0,.92-.62c-.11,1.38-.34,2.53-2.29,2.53H79.41V41h1.31a4.55,4.55,0,0,0,1.68-.27,2.43,2.43,0,0,0,1.11-.89,5.47,5.47,0,0,0,.6-1.83,12.78,12.78,0,0,0,.18-2.32A8.78,8.78,0,0,0,84.15,34.05Zm-1.28,2.66H81.53a1.4,1.4,0,0,1-1.08-.37,1.65,1.65,0,0,1-.35-1.17,4.39,4.39,0,0,1,.07-.82,1.6,1.6,0,0,1,.22-.58,1.18,1.18,0,0,1,.43-.4,1.52,1.52,0,0,1,.68-.14,1.13,1.13,0,0,1,1.1.57,4.33,4.33,0,0,1,.31,1.81C82.91,36,82.89,36.38,82.87,36.71Z"/><path class="cls-1" d="M28.32,33.65a2.45,2.45,0,0,0-.62-.91,2.66,2.66,0,0,0-.94-.54A4.12,4.12,0,0,0,25.57,32a3.5,3.5,0,0,0-1.19.19,2.59,2.59,0,0,0-.94.55,2.46,2.46,0,0,0-.62.9,3,3,0,0,0-.22,1.21,3,3,0,0,0,.3,1.21,3.45,3.45,0,0,0,1,.63,3.06,3.06,0,0,0-.54,0l-.25,0h0a3.1,3.1,0,0,0-.61.22,1.93,1.93,0,0,0-.62.5,2.42,2.42,0,0,0-.48,1.56V41h1.36V39.07a2.12,2.12,0,0,1,.05-.44.89.89,0,0,1,.2-.37.86.86,0,0,1,.39-.26,1.81,1.81,0,0,1,.62-.09h1.58a4,4,0,0,0,1.22-.18,2.66,2.66,0,0,0,.93-.53,2.52,2.52,0,0,0,.61-.9,4.38,4.38,0,0,0,.21-1.42A3.07,3.07,0,0,0,28.32,33.65Zm-1.59,2.63a1.44,1.44,0,0,1-1.16.47,1.47,1.47,0,0,1-1.17-.47,2.37,2.37,0,0,1-.4-1.4,1.85,1.85,0,0,1,.4-1.22,1.69,1.69,0,0,1,2.34,0,1.84,1.84,0,0,1,.39,1.22A2.3,2.3,0,0,1,26.73,36.28Z"/><path class="cls-1" d="M8.14,45.41V53.2H6.79V47.73a10.43,10.43,0,0,1-.49,1.11L4.65,52.07H3.47L1.85,48.84a10.15,10.15,0,0,1-.53-1.13V53.2H0V45.41H1.48l1.77,3.43a16.2,16.2,0,0,1,.83,1.86,12.83,12.83,0,0,1,.83-1.86l1.77-3.43Z"/><polygon class="cls-1" points="9.25 47.89 10.55 47.76 10.55 53.2 9.25 53.2 9.25 47.89"/><path class="cls-1" d="M16.47,49.37V53.2h-1.3V49.79c0-.78-.22-1-.85-1a3.09,3.09,0,0,0-1.36.37V53.2h-1.3V47.89l1.3-.13v.52a3.65,3.65,0,0,1,1.87-.57A1.47,1.47,0,0,1,16.47,49.37Z"/><polygon class="cls-1" points="17.58 47.89 18.88 47.76 18.88 53.2 17.58 53.2 17.58 47.89"/><path class="cls-1" d="M20,52.64l.56-.88a3.06,3.06,0,0,0,1.81.62c.64,0,1-.22,1-.61s-.2-.54-1.1-.78l-.36-.09c-1.12-.3-1.63-.76-1.63-1.59s.87-1.6,2.08-1.6a4.13,4.13,0,0,1,2.13.58l-.5.86a3.13,3.13,0,0,0-1.6-.45c-.51,0-.78.21-.78.53s.18.42.84.58l.38.1c1.31.35,1.85.88,1.85,1.74s-.74,1.71-2.23,1.71A3.94,3.94,0,0,1,20,52.64Z"/><path class="cls-1" d="M29.36,53a3.06,3.06,0,0,1-1.45.36,1.53,1.53,0,0,1-1.64-1.71V48.9h-1v-1h1v-1.2l1.29-.2v1.4h1.66l-.13,1H27.56v2.55c0,.6.23.85.64.85a2.11,2.11,0,0,0,.8-.19Z"/><path class="cls-1" d="M34,47.82l-.22,1.32A2.15,2.15,0,0,0,33,49a1.45,1.45,0,0,0-1.27.74V53.2h-1.3V47.88l1.3-.12v.76a1.83,1.83,0,0,1,1.52-.81A2.43,2.43,0,0,1,34,47.82Z"/><path class="cls-1" d="M39.76,47.88V48l-1.84,5.38c-.56,1.62-1.23,2.27-2.45,2.27a3.25,3.25,0,0,1-1.12-.2l.33-.94a2.29,2.29,0,0,0,.68.1c.5,0,.91-.13,1.31-1.19l.06-.17h-.35l-2-5.25v-.07h1.37L36.84,51c.13.37.22.69.3,1,.08-.3.18-.65.27-1l1-3.16Z"/><polygon class="cls-1" points="18.89 45.41 18.89 47.05 17.53 46.51 17.53 45.41 18.89 45.41"/><polygon class="cls-1" points="10.58 45.41 10.58 47.05 9.22 46.51 9.22 45.41 10.58 45.41"/><path class="cls-1" d="M42.19,50.62a2.57,2.57,0,0,1,2.69-2.84c1.74,0,2.63,1.19,2.63,2.87a2.66,2.66,0,1,1-5.32,0Zm4.11,0c0-1.08-.46-1.82-1.42-1.82s-1.49.73-1.49,1.78.46,1.72,1.43,1.72S46.3,51.7,46.3,50.65Z"/><path class="cls-1" d="M50.8,47.53v.92h1.53l-.13,1H50.8v3.76H49.5V49.47h-.89v-1h.89v-.9a1.94,1.94,0,0,1,2-2.13,3.41,3.41,0,0,1,1.28.23l-.33,1a2.1,2.1,0,0,0-.84-.17C51.09,46.5,50.8,46.89,50.8,47.53Z"/><path class="cls-1" d="M63.88,45.44v7.79H62.54V47.76a12,12,0,0,1-.5,1.1L60.4,52.1H59.22l-1.63-3.24a8.31,8.31,0,0,1-.52-1.13v5.5H55.74V45.44h1.48L59,48.86a14.1,14.1,0,0,1,.83,1.87,13.55,13.55,0,0,1,.83-1.87l1.78-3.42Z"/><path class="cls-1" d="M69.87,50.82H66.29c.06,1.13.72,1.54,1.45,1.54a2.93,2.93,0,0,0,1.58-.48l.46.84a3.72,3.72,0,0,1-2.13.66A2.44,2.44,0,0,1,65,50.63c0-1.67.9-2.9,2.61-2.9A2.14,2.14,0,0,1,69.91,50C69.91,50.22,69.9,50.53,69.87,50.82Zm-3.52-.9h2.31v0c0-.86-.44-1.21-1-1.21S66.48,49.15,66.35,49.92Z"/><path class="cls-1" d="M76.06,45.42v7.81H74.92l-.08-.4a3.1,3.1,0,0,1-1.67.55c-1.46,0-2.23-1-2.23-2.69a2.68,2.68,0,0,1,2.77-3,3.66,3.66,0,0,1,1.05.16V45.56Zm-2.55,6.93A2.34,2.34,0,0,0,74.76,52V48.85a2.54,2.54,0,0,0-.9-.14c-.89,0-1.56.62-1.56,2C72.3,51.84,72.74,52.35,73.51,52.35Z"/><polygon class="cls-1" points="77.17 47.91 78.47 47.78 78.47 53.23 77.17 53.23 77.17 47.91"/><path class="cls-1" d="M84.29,49.5v3.73H83.16l-.1-.45a3,3,0,0,1-1.86.6,1.45,1.45,0,0,1-1.62-1.45c0-1.36,1.57-1.94,3.41-2v-.2c0-.67-.2-1-.86-1a3.28,3.28,0,0,0-1.78.61l-.53-.83a4.21,4.21,0,0,1,2.5-.82C83.59,47.73,84.29,48.24,84.29,49.5Zm-2.67,2.87A2.65,2.65,0,0,0,83,52V50.81c-1.25.06-2,.38-2,1C80.94,52.17,81.18,52.37,81.62,52.37Z"/><polygon class="cls-1" points="78.5 45.44 78.5 47.07 77.14 46.53 77.14 45.44 78.5 45.44"/><path class="cls-2" d="M131.28,14a9,9,0,0,0-5.91-6.06,8.87,8.87,0,0,1,4.66-.2.19.19,0,0,0,.18-.32,8.87,8.87,0,0,0-1.27-1A9,9,0,0,0,124,4.92h-.19a9.12,9.12,0,0,1,3-1.61.19.19,0,0,0,0-.36,9,9,0,0,0-5.06.38,4.51,4.51,0,0,1,1.56-2.24.19.19,0,0,0-.13-.34,4.63,4.63,0,0,0-3.49,1.94,4.54,4.54,0,0,0-1-2.63.19.19,0,0,0-.29,0,4.6,4.6,0,0,0-1,2.63A4.63,4.63,0,0,0,113.89.76a.19.19,0,0,0-.13.34,4.51,4.51,0,0,1,1.56,2.24A9,9,0,0,0,110.26,3a.19.19,0,0,0,0,.36,9,9,0,0,1,2.94,1.61H113a9,9,0,0,0-4.93,1.48,8.87,8.87,0,0,0-1.27,1,.19.19,0,0,0,.18.32,9,9,0,0,1,2-.22,8.86,8.86,0,0,1,2.69.42,9,9,0,0,0-5.9,6.06.19.19,0,0,0,.32.19,8.79,8.79,0,0,1,5.64-2.76,8.93,8.93,0,0,0-4,8,.19.19,0,0,0,.37.06,8.81,8.81,0,0,1,5.2-5A8.77,8.77,0,0,0,111,20.3a8.88,8.88,0,0,0,.51,3,.19.19,0,0,0,.37,0,8.56,8.56,0,0,1,4.4-6.56l.31-.17a.08.08,0,0,1,.12,0,23,23,0,0,1,.4,5.22c0,4.45-.36,13.06-.4,13.42a.08.08,0,0,0,0,0l1.79,1.31h.06l1.78-1.31a.05.05,0,0,0,0,0c0-.37-.4-9-.4-13.42a23,23,0,0,1,.4-5.22.07.07,0,0,1,.11,0l.32.17a8.56,8.56,0,0,1,4.4,6.56.19.19,0,0,0,.37,0,8.88,8.88,0,0,0,.51-3,8.77,8.77,0,0,0-2.27-5.9,8.81,8.81,0,0,1,5.2,5,.19.19,0,0,0,.37-.06,8.93,8.93,0,0,0-4-8A8.79,8.79,0,0,1,131,14.19.19.19,0,0,0,131.28,14Z"/><path class="cls-2" d="M124.55,49.19a2.69,2.69,0,0,1-.32.27,1.11,1.11,0,0,1-.3.17.59.59,0,0,1-.27,0,.54.54,0,0,1-.24-.09,1.55,1.55,0,0,1-.24-.27,1.39,1.39,0,0,0-.41-.35,1.51,1.51,0,0,0-.58-.18,1.58,1.58,0,0,0-.57,0h0a1.47,1.47,0,0,0-.48.25,1.39,1.39,0,0,0-.5.8,1.48,1.48,0,0,0,.05.86,1.86,1.86,0,0,0,2,1.09,4.35,4.35,0,0,0,2.36-1.54,1.23,1.23,0,0,0-.17-1.46C124.78,49,124.67,49.08,124.55,49.19Z"/><path class="cls-2" d="M116.23,49.48a1.59,1.59,0,0,0-.34-.39,1.57,1.57,0,0,0-.48-.25h0a1.51,1.51,0,0,0-.56,0,1.41,1.41,0,0,0-.58.18,1.39,1.39,0,0,0-.41.35,1.55,1.55,0,0,1-.24.27.58.58,0,0,1-.25.09.57.57,0,0,1-.26,0,1.11,1.11,0,0,1-.3-.17,2.69,2.69,0,0,1-.32-.27c-.12-.11-.23-.23-.34-.35A1.23,1.23,0,0,0,112,50.3a4.35,4.35,0,0,0,2.36,1.54,1.87,1.87,0,0,0,2-1.09,1.53,1.53,0,0,0-.11-1.27Z"/><path class="cls-2" d="M145.51,33.34c-10.19-4-20,.55-27,5.59-7-5-16.81-9.59-27-5.59a.23.23,0,0,0,.1.44c8.94-.71,16,1.23,24.4,7-2.52,2-4.56,4-6,5.29-.21-.3-.57-.77-.76-1a4.35,4.35,0,0,0-2.36-1.54,1.86,1.86,0,0,0-2,1.09,1.58,1.58,0,0,0-.06.86A1.48,1.48,0,0,0,105,46a1.59,1.59,0,0,0,.34.39,1.47,1.47,0,0,0,.48.25h0a1.58,1.58,0,0,0,.57,0,1.51,1.51,0,0,0,.58-.18,1.39,1.39,0,0,0,.41-.35,1.55,1.55,0,0,1,.24-.27.5.5,0,0,1,.51,0,1.73,1.73,0,0,1,.3.16,8.43,8.43,0,0,1,1.11,1.21l.41.51.18.24s-1.44-.53-1.66-.33c-1,1-1.89,1.79-2.66,2.49a7.7,7.7,0,0,1-.71.57,5,5,0,0,1-.63.37,2.93,2.93,0,0,1-.57.19,2.22,2.22,0,0,1-.51.06,2.42,2.42,0,0,1-.46-.06,3.06,3.06,0,0,1-.43-.13l-.4-.18a3,3,0,0,0-.4-.2,1.58,1.58,0,0,0-.42-.09H101a1.56,1.56,0,0,0-.75.28,1.54,1.54,0,0,0-.52.64,1.63,1.63,0,0,0-.13.78,1.61,1.61,0,0,0,.29.76,2.1,2.1,0,0,0,.41.43,3,3,0,0,0,.56.34,3.48,3.48,0,0,0,.68.25,5,5,0,0,0,.77.14,5.71,5.71,0,0,0,.83,0,2.31,2.31,0,0,0,.37,0c1.81-.17,3.58-1.71,4.49-2.57a132.25,132.25,0,0,1,10.47-9,132.25,132.25,0,0,1,10.47,9c.91.86,2.68,2.4,4.48,2.57a2.43,2.43,0,0,0,.38,0,5.71,5.71,0,0,0,.83,0,5,5,0,0,0,.77-.14,3.48,3.48,0,0,0,.68-.25,2.64,2.64,0,0,0,.55-.34,1.91,1.91,0,0,0,.42-.43,1.72,1.72,0,0,0,.29-.76,1.63,1.63,0,0,0-.13-.78,1.54,1.54,0,0,0-.52-.64,1.56,1.56,0,0,0-.75-.28h-.27a1.58,1.58,0,0,0-.42.09,3,3,0,0,0-.4.2l-.41.18a2.92,2.92,0,0,1-.42.13,2.42,2.42,0,0,1-.46.06,2.1,2.1,0,0,1-.51-.06,2.73,2.73,0,0,1-.57-.19,5,5,0,0,1-.63-.37,7.7,7.7,0,0,1-.71-.57c-.77-.7-1.61-1.49-2.66-2.49-.22-.2-1.66.33-1.66.33l.18-.24.41-.51A7.89,7.89,0,0,1,128.56,46a1.73,1.73,0,0,1,.3-.16.49.49,0,0,1,.27-.05.54.54,0,0,1,.24.09,1.55,1.55,0,0,1,.24.27,1.39,1.39,0,0,0,.41.35,1.51,1.51,0,0,0,.58.18,1.58,1.58,0,0,0,.57,0h0a1.47,1.47,0,0,0,.48-.25A1.59,1.59,0,0,0,132,46a1.46,1.46,0,0,0,.16-.41,1.48,1.48,0,0,0,0-.86,1.87,1.87,0,0,0-2-1.09,4.35,4.35,0,0,0-2.36,1.54c-.19.22-.55.69-.77,1-1.4-1.34-3.43-3.27-6-5.29,8.4-5.82,15.47-7.76,24.41-7A.23.23,0,0,0,145.51,33.34Z"/></g></g></svg>