<svg width="24" height="24" viewBox="0 0 24 24" fill="none" xmlns="http://www.w3.org/2000/svg">
<g clip-path="url(#clip0_31_975)">
<path d="M4.5 6.25V1.75C4.5 1.49 4.53 1.24 4.6 1H1.75C0.79 1 0 1.79 0 2.75V7.25C0 8.21 0.79 9 1.75 9H2.12L3.4 10.7C3.54 10.88 3.75 10.99 3.97 11H4C4.22 11 4.42 10.91 4.56 10.74L6.06 9.03C5.13 8.45 4.5 7.42 4.5 6.25Z" fill="black"/>
<path d="M22.2499 1H19.3999C19.4699 1.24 19.4999 1.49 19.4999 1.75V6.25C19.4999 7.42 18.8699 8.45 17.9399 9.03L19.4399 10.74C19.5799 10.91 19.7799 11 19.9999 11H20.0299C20.2499 10.99 20.4599 10.88 20.5999 10.7L21.8699 9H22.2499C23.2099 9 23.9999 8.21 23.9999 7.25V2.75C23.9999 1.79 23.2099 1 22.2499 1Z" fill="black"/>
<path d="M12 10C11.991 10 11.981 10 11.972 10C11.746 9.991 11.536 9.881 11.4 9.7L10.125 8H7.75C6.785 8 6 7.215 6 6.25V1.75C6 0.785 6.785 0 7.75 0H16.25C17.215 0 18 0.785 18 1.75V6.25C18 7.215 17.215 8 16.25 8H14.09L12.564 9.744C12.422 9.907 12.216 10 12 10Z" fill="black"/>
<path d="M4 17C5.10457 17 6 16.1046 6 15C6 13.8954 5.10457 13 4 13C2.89543 13 2 13.8954 2 15C2 16.1046 2.89543 17 4 17Z" fill="black"/>
<path d="M6.67 18.4C5.66 19.16 5 20.38 5 21.75V22H0.75C0.34 22 0 21.66 0 21.25V20.75C0 19.23 1.23 18 2.75 18H5.25C5.77 18 6.26 18.15 6.67 18.4Z" fill="black"/>
<path d="M20 17C21.1046 17 22 16.1046 22 15C22 13.8954 21.1046 13 20 13C18.8954 13 18 13.8954 18 15C18 16.1046 18.8954 17 20 17Z" fill="black"/>
<path d="M24 20.75V21.25C24 21.66 23.66 22 23.25 22H19V21.75C19 20.38 18.34 19.16 17.33 18.4C17.74 18.15 18.23 18 18.75 18H21.25C22.77 18 24 19.23 24 20.75Z" fill="black"/>
<path d="M12 17.5C13.6569 17.5 15 16.1569 15 14.5C15 12.8431 13.6569 11.5 12 11.5C10.3431 11.5 9 12.8431 9 14.5C9 16.1569 10.3431 17.5 12 17.5Z" fill="black"/>
<path d="M14.75 19H9.25C7.733 19 6.5 20.233 6.5 21.75V23.25C6.5 23.664 6.836 24 7.25 24H16.75C17.164 24 17.5 23.664 17.5 23.25V21.75C17.5 20.233 16.267 19 14.75 19Z" fill="black"/>
</g>
<defs>
<clipPath id="clip0_31_975">
<rect width="24" height="24" fill="white"/>
</clipPath>
</defs>
</svg>
