<svg width="24" height="24" viewBox="0 0 24 24" fill="none" xmlns="http://www.w3.org/2000/svg">
<g clip-path="url(#clip0_30_564)">
<path d="M12 5.12222C11.5309 5.12222 11.1505 4.74192 11.1505 4.2727V0.849516C11.1505 0.380297 11.5309 0 12 0C12.4692 0 12.8495 0.380297 12.8495 0.849516V4.27275C12.8495 4.74192 12.4692 5.12222 12 5.12222Z" fill="black"/>
<path opacity="0.52" d="M12 24C11.5309 24 11.1505 23.6197 11.1505 23.1505V19.7273C11.1505 19.258 11.5309 18.8777 12 18.8777C12.4692 18.8777 12.8495 19.258 12.8495 19.7273V23.1505C12.8495 23.6197 12.4692 24 12 24Z" fill="black"/>
<path opacity="0.58" d="M16.2141 23.1732C15.8792 23.1732 15.5617 22.9738 15.4273 22.6446L14.1337 19.4752C13.9564 19.0409 14.1648 18.545 14.5992 18.3677C15.0333 18.1902 15.5294 18.3988 15.7067 18.8331L17.0003 22.0025C17.1776 22.4369 16.9692 22.9327 16.5348 23.11C16.4298 23.153 16.3211 23.1732 16.2141 23.1732Z" fill="black"/>
<path opacity="0.94" d="M14.9199 5.69546C14.813 5.69546 14.7043 5.67521 14.5992 5.63223C14.1648 5.45504 13.9564 4.9591 14.1337 4.52471L15.4273 1.35535C15.6046 0.920962 16.1005 0.711946 16.5349 0.889931C16.9692 1.06712 17.1777 1.56306 17.0003 1.99745L15.7067 5.16681C15.5723 5.49606 15.2549 5.69546 14.9199 5.69546Z" fill="black"/>
<path opacity="0.46" d="M7.78588 23.1732C7.67896 23.1732 7.57026 23.153 7.46516 23.11C7.03077 22.9328 6.82237 22.4369 6.9997 22.0025L8.29331 18.8331C8.47063 18.3987 8.96643 18.1902 9.40082 18.3677C9.83521 18.5449 10.0436 19.0409 9.86629 19.4752L8.57268 22.6446C8.43829 22.9738 8.12085 23.1732 7.78588 23.1732Z" fill="black"/>
<path opacity="0.36" d="M1.67669 17.0635C1.34172 17.0635 1.02429 16.8642 0.889895 16.5349C0.712567 16.1005 0.920973 15.6046 1.35532 15.4274L4.52463 14.1337C4.95897 13.9559 5.45486 14.1645 5.63219 14.5991C5.80952 15.0335 5.60111 15.5294 5.16677 15.7066L1.99746 17.0002C1.89236 17.0432 1.78361 17.0635 1.67669 17.0635Z" fill="black"/>
<path opacity="0.82" d="M19.1545 9.92954C18.8196 9.92954 18.5021 9.73028 18.3677 9.40093C18.1904 8.96654 18.3988 8.47065 18.8332 8.29342L22.0025 6.99976C22.4367 6.82206 22.9328 7.03061 23.11 7.46518C23.2874 7.89957 23.079 8.39547 22.6446 8.5727L19.4753 9.86636C19.3702 9.90929 19.2615 9.92954 19.1545 9.92954Z" fill="black"/>
<path opacity="0.24" d="M4.84546 9.92953C4.73854 9.92953 4.62984 9.90928 4.5247 9.8663L1.35538 8.57264C0.920993 8.39545 0.712634 7.89952 0.889962 7.46513C1.06724 7.03073 1.56299 6.82238 1.99752 6.9997L5.16684 8.29336C5.60123 8.47055 5.80959 8.96648 5.63226 9.40088C5.49787 9.73008 5.18038 9.92953 4.84546 9.92953Z" fill="black"/>
<path opacity="0.7" d="M22.3233 17.0635C22.2164 17.0635 22.1077 17.0432 22.0025 17.0002L18.8332 15.7066C18.3988 15.5294 18.1905 15.0335 18.3678 14.5991C18.5451 14.165 19.0409 13.9565 19.4754 14.1337L22.6447 15.4273C23.0791 15.6045 23.2874 16.1005 23.1101 16.5349C22.9757 16.864 22.6582 17.0635 22.3233 17.0635Z" fill="black"/>
<path opacity="0.88" d="M17.464 7.38547C17.2466 7.38547 17.0292 7.30251 16.8633 7.13661C16.5316 6.80493 16.5315 6.26704 16.8633 5.93535L19.2838 3.51477C19.6155 3.18294 20.1534 3.18294 20.4852 3.51477C20.8169 3.84646 20.817 4.38435 20.4852 4.71604L18.0647 7.13661C17.8988 7.30251 17.6814 7.38547 17.464 7.38547Z" fill="black"/>
<path opacity="0.4" d="M4.11547 20.7341C3.89807 20.7341 3.68071 20.6511 3.51482 20.4852C3.18308 20.1535 3.18303 19.6156 3.51477 19.284L5.9353 16.8634C6.26703 16.5315 6.80492 16.5315 7.13666 16.8634C7.46839 17.1951 7.46844 17.733 7.13671 18.0646L4.71617 20.4852C4.55028 20.6511 4.33283 20.7341 4.11547 20.7341Z" fill="black"/>
<path opacity="0.18" d="M6.53596 7.38549C6.31851 7.38549 6.10119 7.30252 5.93526 7.13663L3.51473 4.71605C3.18299 4.38437 3.18299 3.84647 3.51477 3.51479C3.84646 3.1831 4.38435 3.1831 4.71613 3.51479L7.13666 5.93537C7.4684 6.26705 7.4684 6.80494 7.13662 7.13663C6.97077 7.30252 6.75332 7.38549 6.53596 7.38549Z" fill="black"/>
<path opacity="0.64" d="M19.8845 20.7341C19.6671 20.7341 19.4497 20.6511 19.2838 20.4852L16.8633 18.0647C16.5315 17.733 16.5316 17.1951 16.8633 16.8634C17.1951 16.5317 17.733 16.5317 18.0647 16.8634L20.4852 19.284C20.817 19.6157 20.817 20.1535 20.4852 20.4852C20.3194 20.6511 20.1019 20.7341 19.8845 20.7341Z" fill="black"/>
<path opacity="0.3" d="M4.27267 12.8495H0.849577C0.380405 12.8495 6.10352e-05 12.4692 6.10352e-05 12C6.10352e-05 11.5308 0.380405 11.1505 0.849577 11.1505H4.27267C4.74184 11.1505 5.12219 11.5308 5.12219 12C5.12219 12.4692 4.74184 12.8495 4.27267 12.8495Z" fill="black"/>
<path opacity="0.76" d="M23.1504 12.8495H19.7273C19.2581 12.8495 18.8777 12.4692 18.8777 12C18.8777 11.5308 19.2581 11.1505 19.7273 11.1505H23.1504C23.6196 11.1505 24 11.5308 24 12C24 12.4692 23.6197 12.8495 23.1504 12.8495Z" fill="black"/>
</g>
<defs>
<clipPath id="clip0_30_564">
<rect width="24" height="24" fill="white"/>
</clipPath>
</defs>
</svg>
