<svg width="24" height="24" viewBox="0 0 24 24" fill="none" xmlns="http://www.w3.org/2000/svg">
<path d="M7.19999 2.39999C6.56347 2.39999 5.95302 2.65285 5.50293 3.10294C5.05284 3.55302 4.79999 4.16347 4.79999 4.79999V19.2C4.79999 19.8365 5.05284 20.447 5.50293 20.897C5.95302 21.3471 6.56347 21.6 7.19999 21.6H12.3084C12.0028 21.2298 11.7384 20.8275 11.52 20.4H7.19999C6.88173 20.4 6.5765 20.2736 6.35146 20.0485C6.12642 19.8235 5.99999 19.5183 5.99999 19.2V4.79999C5.99999 4.48173 6.12642 4.17651 6.35146 3.95147C6.5765 3.72642 6.88173 3.59999 7.19999 3.59999H16.8C17.1182 3.59999 17.4235 3.72642 17.6485 3.95147C17.8736 4.17651 18 4.48173 18 4.79999V10.8264C18.406 10.8632 18.8077 10.9375 19.2 11.0484V4.79999C19.2 4.16347 18.9471 3.55302 18.497 3.10294C18.047 2.65285 17.4365 2.39999 16.8 2.39999H7.19999ZM9.59999 12C9.59999 12.3183 9.47356 12.6235 9.24852 12.8485C9.02347 13.0736 8.71825 13.2 8.39999 13.2C8.08173 13.2 7.7765 13.0736 7.55146 12.8485C7.32642 12.6235 7.19999 12.3183 7.19999 12C7.19999 11.6817 7.32642 11.3765 7.55146 11.1515C7.7765 10.9264 8.08173 10.8 8.39999 10.8C8.71825 10.8 9.02347 10.9264 9.24852 11.1515C9.47356 11.3765 9.59999 11.6817 9.59999 12ZM22.8 17.4C22.8 18.8322 22.2311 20.2057 21.2184 21.2184C20.2057 22.2311 18.8322 22.8 17.4 22.8C15.9678 22.8 14.5943 22.2311 13.5816 21.2184C12.5689 20.2057 12 18.8322 12 17.4C12 15.9678 12.5689 14.5943 13.5816 13.5816C14.5943 12.5689 15.9678 12 17.4 12C18.8322 12 20.2057 12.5689 21.2184 13.5816C22.2311 14.5943 22.8 15.9678 22.8 17.4ZM14.5764 16.9752L14.5728 16.9788C14.4629 17.0901 14.4008 17.24 14.4 17.3964V17.4036C14.401 17.5612 14.4639 17.712 14.5752 17.8236L16.9752 20.2236C17.0309 20.2794 17.097 20.3236 17.1699 20.3539C17.2427 20.3841 17.3207 20.3997 17.3996 20.3997C17.4784 20.3998 17.5565 20.3843 17.6293 20.3542C17.7022 20.3241 17.7684 20.2799 17.8242 20.2242C17.88 20.1685 17.9242 20.1023 17.9545 20.0295C17.9847 19.9567 18.0003 19.8787 18.0003 19.7998C18.0004 19.721 17.9849 19.6429 17.9548 19.57C17.9247 19.4972 17.8805 19.431 17.8248 19.3752L16.4484 18H19.8C19.9591 18 20.1117 17.9368 20.2243 17.8243C20.3368 17.7117 20.4 17.5591 20.4 17.4C20.4 17.2409 20.3368 17.0883 20.2243 16.9757C20.1117 16.8632 19.9591 16.8 19.8 16.8H16.4484L17.8248 15.4248C17.9375 15.3121 18.0007 15.1593 18.0007 15C18.0007 14.8407 17.9375 14.6879 17.8248 14.5752C17.7121 14.4625 17.5593 14.3992 17.4 14.3992C17.2407 14.3992 17.0879 14.4625 16.9752 14.5752L14.5752 16.9752H14.5764Z" fill="black"/>
</svg>
