<svg width="22" height="25" viewBox="0 0 22 25" fill="none" xmlns="http://www.w3.org/2000/svg">
<path d="M2.82352 0.5C2.07467 0.5 1.3565 0.797477 0.826989 1.32699C0.297477 1.8565 0 2.57467 0 3.32352V20.2646C0 21.0135 0.297477 21.7316 0.826989 22.2612C1.3565 22.7907 2.07467 23.0881 2.82352 23.0881H8.83338C8.47381 22.6527 8.1628 22.1793 7.90585 21.6764H2.82352C2.4491 21.6764 2.09001 21.5276 1.82525 21.2629C1.5605 20.9981 1.41176 20.639 1.41176 20.2646V3.32352C1.41176 2.9491 1.5605 2.59001 1.82525 2.32525C2.09001 2.0605 2.4491 1.91176 2.82352 1.91176H14.1176C14.492 1.91176 14.8511 2.0605 15.1159 2.32525C15.3806 2.59001 15.5293 2.9491 15.5293 3.32352V10.4134C16.007 10.4566 16.4796 10.5441 16.9411 10.6745V3.32352C16.9411 2.57467 16.6436 1.8565 16.1141 1.32699C15.5846 0.797477 14.8664 0.5 14.1176 0.5H2.82352ZM5.64704 11.7941C5.64704 12.1685 5.4983 12.5276 5.23354 12.7923C4.96878 13.0571 4.6097 13.2058 4.23528 13.2058C3.86086 13.2058 3.50177 13.0571 3.23701 12.7923C2.97226 12.5276 2.82352 12.1685 2.82352 11.7941C2.82352 11.4196 2.97226 11.0606 3.23701 10.7958C3.50177 10.531 3.86086 10.3823 4.23528 10.3823C4.6097 10.3823 4.96878 10.531 5.23354 10.7958C5.4983 11.0606 5.64704 11.4196 5.64704 11.7941Z" fill="black"/>
<path d="M8.47056 18.1469C8.47056 16.462 9.13989 14.8461 10.3313 13.6547C11.5227 12.4633 13.1386 11.794 14.8235 11.794C16.5084 11.794 18.1243 12.4633 19.3157 13.6547C20.5071 14.8461 21.1764 16.462 21.1764 18.1469C21.1764 19.8318 20.5071 21.4477 19.3157 22.6391C18.1243 23.8305 16.5084 24.4998 14.8235 24.4998C13.1386 24.4998 11.5227 23.8305 10.3313 22.6391C9.13989 21.4477 8.47056 19.8318 8.47056 18.1469ZM18.1453 18.6466L18.1496 18.6424C18.2789 18.5115 18.3519 18.3351 18.3529 18.1511L18.3529 18.1426C18.3517 17.9573 18.2777 17.7798 18.1468 17.6485L15.3232 14.825C15.2577 14.7594 15.1799 14.7073 15.0942 14.6717C15.0086 14.6362 14.9167 14.6179 14.824 14.6178C14.7312 14.6177 14.6394 14.6359 14.5537 14.6714C14.4679 14.7068 14.39 14.7588 14.3244 14.8243C14.2588 14.8898 14.2067 14.9677 14.1712 15.0533C14.1356 15.139 14.1173 15.2308 14.1172 15.3236C14.1171 15.4163 14.1353 15.5082 14.1708 15.5939C14.2062 15.6796 14.2582 15.7575 14.3237 15.8231L15.943 17.441L12 17.441C11.8127 17.441 11.6332 17.5154 11.5008 17.6477C11.3684 17.7801 11.2941 17.9597 11.2941 18.1469C11.2941 18.3341 11.3684 18.5136 11.5008 18.646C11.6332 18.7784 11.8127 18.8527 12 18.8527L15.943 18.8527L14.3237 20.4706C14.1912 20.6032 14.1167 20.7829 14.1167 20.9704C14.1167 21.1578 14.1912 21.3376 14.3237 21.4701C14.4563 21.6027 14.636 21.6772 14.8235 21.6772C15.0109 21.6772 15.1907 21.6027 15.3232 21.4701L18.1468 18.6466L18.1453 18.6466Z" fill="black"/>
</svg>
