<svg width="24" height="24" viewBox="0 0 24 24" fill="none" xmlns="http://www.w3.org/2000/svg">
<g clip-path="url(#clip0_31_1223)">
<path d="M8.57218 12.7137L10.3115 11.7983L8.57218 10.8829L9.62077 9.22046L7.65677 9.29733L7.73364 7.33333L6.07118 8.38192L5.15576 6.64258L4.24034 8.38192L2.57788 7.33333L2.65476 9.29733L0.690747 9.22046L1.73934 10.8829L0 11.7983L1.73934 12.7138L0.690747 14.3762L2.65476 14.2993L2.57788 16.2633L4.24034 15.2147L5.15576 16.9541L6.07118 15.2148L7.73364 16.2633L7.65677 14.2993L9.62077 14.3762L8.57218 12.7137ZM5.15576 14.3762C3.73203 14.3762 2.57788 13.222 2.57788 11.7983C2.57788 10.3747 3.73203 9.22046 5.15576 9.22046C6.57949 9.22046 7.73364 10.3747 7.73364 11.7983C7.73364 13.222 6.57949 14.3762 5.15576 14.3762Z" fill="black"/>
<path d="M21.5934 22.0034C21.1186 22.3373 20.7755 22.5786 19.9979 22.5786C19.2204 22.5786 18.8772 22.3373 18.4023 22.0034C17.8758 21.6332 17.2204 21.1725 15.9981 21.1725C14.7758 21.1725 14.1205 21.6333 13.5939 22.0034C13.1191 22.3373 12.776 22.5786 11.9985 22.5786C11.2211 22.5786 10.878 22.3374 10.4032 22.0034C9.87662 21.6333 9.22131 21.1725 7.99905 21.1725C6.77669 21.1725 6.12143 21.6333 5.59488 22.0034C5.12004 22.3373 4.77697 22.5786 3.9995 22.5786C3.22203 22.5786 2.879 22.3374 2.40416 22.0034C1.87762 21.6332 1.22235 21.1724 0 21.1724V22.5785C0.777419 22.5785 1.12054 22.8197 1.59538 23.1537C2.12193 23.5239 2.77724 23.9846 3.9995 23.9846C5.22185 23.9846 5.87712 23.5239 6.40366 23.1537C6.8785 22.8198 7.22158 22.5785 7.99905 22.5785C8.77651 22.5785 9.11954 22.8197 9.59438 23.1537C10.1209 23.5239 10.7762 23.9846 11.9985 23.9846C13.2208 23.9846 13.8761 23.5239 14.4027 23.1537C14.8775 22.8198 15.2206 22.5785 15.9981 22.5785C16.7756 22.5785 17.1187 22.8197 17.5936 23.1537C18.1202 23.5239 18.7755 23.9846 19.9979 23.9846C21.2202 23.9846 21.8755 23.5239 22.4021 23.1537C22.877 22.8198 23.2201 22.5785 23.9977 22.5785V21.1724C22.7753 21.1724 22.12 21.6332 21.5934 22.0034Z" fill="black"/>
<path d="M23.2712 5.13555C22.498 3.47745 21.1937 2.17433 19.557 1.40708L19.8885 0.496349L18.5671 0.0153198L18.2354 0.926519C14.4149 -0.0846641 10.3723 1.97441 8.99487 5.75884L8.71104 6.5387L9.52694 6.69048C10.8455 6.93578 12.106 7.39459 13.2736 8.05421L13.4378 8.14693L13.6263 8.1451C13.65 8.14487 13.6737 8.14477 13.6974 8.14477C14.318 8.14477 14.9313 8.22413 15.5236 8.37713L12.2474 17.3785C12.1645 17.3775 12.0817 17.376 11.9987 17.376C9.82633 17.376 7.69282 17.7317 5.65747 18.4333C4.37521 18.8753 3.14789 19.4495 1.98877 20.1468C2.52431 20.3696 2.91891 20.6467 3.21267 20.8532C3.62381 21.1423 3.66679 21.1725 3.99937 21.1725C4.33199 21.1725 4.37493 21.1423 4.78593 20.8533C5.36427 20.4466 6.33186 19.7664 7.99892 19.7664C9.66597 19.7664 10.6336 20.4467 11.2117 20.8532C11.6228 21.1423 11.6658 21.1725 11.9984 21.1725C12.331 21.1725 12.3739 21.1423 12.7849 20.8533C13.3633 20.4467 14.3309 19.7664 15.998 19.7664C17.6653 19.7664 18.6328 20.4468 19.211 20.8532C19.6221 21.1423 19.6651 21.1725 19.9977 21.1725C20.3304 21.1725 20.3734 21.1423 20.7844 20.8533C21.0782 20.6467 21.4729 20.3695 22.0086 20.1467C20.8495 19.4494 19.6222 18.8752 18.3399 18.4332C16.8441 17.9176 15.2953 17.5896 13.7171 17.4515L16.8449 8.85793C17.4182 9.13158 17.9576 9.4807 18.4475 9.9L18.5908 10.0226L18.7761 10.057C20.0947 10.3023 21.3552 10.7611 22.5229 11.4208L23.2455 11.8289L23.5294 11.049C24.2359 9.10786 24.1442 7.00773 23.2712 5.13555Z" fill="black"/>
</g>
<defs>
<clipPath id="clip0_31_1223">
<rect width="24" height="24" fill="white"/>
</clipPath>
</defs>
</svg>
