<svg width="56" height="56" viewBox="0 0 56 56" fill="none" xmlns="http://www.w3.org/2000/svg">
<path d="M32.6666 33.2553V38.1306C31.2069 37.6147 29.6363 37.334 27.9999 37.334C20.2679 37.334 13.9999 43.602 13.9999 51.334H9.33325C9.33325 41.0246 17.6906 32.6673 27.9999 32.6673C29.6113 32.6673 31.1751 32.8715 32.6666 33.2553ZM27.9999 30.334C20.2649 30.334 13.9999 24.069 13.9999 16.334C13.9999 8.59898 20.2649 2.33398 27.9999 2.33398C35.7349 2.33398 41.9999 8.59898 41.9999 16.334C41.9999 24.069 35.7349 30.334 27.9999 30.334ZM27.9999 25.6673C33.1566 25.6673 37.3333 21.4907 37.3333 16.334C37.3333 11.1773 33.1566 7.00065 27.9999 7.00065C22.8433 7.00065 18.6666 11.1773 18.6666 16.334C18.6666 21.4907 22.8433 25.6673 27.9999 25.6673Z" fill="black"/>
<path d="M39.0977 40.4167H46.9022C47.4559 40.4167 47.7345 40.4167 47.939 40.5276C48.1187 40.6251 48.2607 40.78 48.3423 40.9676C48.4349 41.1802 48.411 41.4552 48.3634 42.0071L47.63 50.5669C47.5494 51.5138 47.509 51.9878 47.2982 52.3453C47.1129 52.6608 46.8374 52.9136 46.5071 53.0713C46.1322 53.25 45.6574 53.25 44.7077 53.25H41.2931C40.3425 53.25 39.8686 53.25 39.4928 53.0713C39.1626 52.9136 38.887 52.6608 38.7017 52.3453C38.4918 51.9878 38.4515 51.5129 38.3699 50.5669L37.6365 42.008C37.5889 41.4562 37.566 41.1803 37.6585 40.9667C37.7405 40.7793 37.8824 40.6246 38.0619 40.5267C38.2663 40.4167 38.5431 40.4167 39.0977 40.4167ZM39.0977 40.4167H38.1875C37.3625 40.4167 36.95 40.4167 36.7107 40.2443C36.606 40.1689 36.5183 40.0721 36.4536 39.9604C36.3888 39.8488 36.3484 39.7246 36.3349 39.5963C36.3037 39.3029 36.509 38.9436 36.9188 38.2268C37.225 37.6905 37.378 37.4219 37.5935 37.2267C37.7857 37.052 38.0128 36.9201 38.2599 36.8398C38.5349 36.75 38.8447 36.75 39.4616 36.75H46.5383C47.1561 36.75 47.4641 36.75 47.741 36.8398C47.9885 36.9196 48.2149 37.0516 48.4065 37.2267C48.6219 37.4219 48.775 37.6896 49.0811 38.2258C49.4909 38.9427 49.6962 39.302 49.665 39.5963C49.6516 39.7246 49.6111 39.8488 49.5464 39.9604C49.4816 40.0721 49.394 40.1689 49.2892 40.2443" stroke="black" stroke-width="3" stroke-linecap="round" stroke-linejoin="round"/>
</svg>
