<svg width="56" height="56" viewBox="0 0 56 56" fill="none" xmlns="http://www.w3.org/2000/svg">
<path d="M32.6666 33.2553V38.1306C31.2069 37.6147 29.6363 37.334 27.9999 37.334C20.2679 37.334 13.9999 43.602 13.9999 51.334H9.33325C9.33325 41.0246 17.6906 32.6673 27.9999 32.6673C29.6113 32.6673 31.1751 32.8715 32.6666 33.2553ZM27.9999 30.334C20.2649 30.334 13.9999 24.069 13.9999 16.334C13.9999 8.59898 20.2649 2.33398 27.9999 2.33398C35.7349 2.33398 41.9999 8.59898 41.9999 16.334C41.9999 24.069 35.7349 30.334 27.9999 30.334ZM27.9999 25.6673C33.1566 25.6673 37.3333 21.4907 37.3333 16.334C37.3333 11.1773 33.1566 7.00065 27.9999 7.00065C22.8433 7.00065 18.6666 11.1773 18.6666 16.334C18.6666 21.4907 22.8433 25.6673 27.9999 25.6673Z" fill="black"/>
<path d="M54.0607 45.0607C54.6464 44.4749 54.6464 43.5251 54.0607 42.9393L44.5147 33.3934C43.9289 32.8076 42.9792 32.8076 42.3934 33.3934C41.8076 33.9792 41.8076 34.9289 42.3934 35.5147L50.8787 44L42.3934 52.4853C41.8076 53.0711 41.8076 54.0208 42.3934 54.6066C42.9792 55.1924 43.9289 55.1924 44.5147 54.6066L54.0607 45.0607ZM33 45.5L53 45.5V42.5L33 42.5V45.5Z" fill="black"/>
</svg>
