<svg width="56" height="56" viewBox="0 0 56 56" fill="none" xmlns="http://www.w3.org/2000/svg">
<path d="M32.6666 33.2553V38.1306C31.2069 37.6147 29.6363 37.334 27.9999 37.334C20.2679 37.334 13.9999 43.602 13.9999 51.334H9.33325C9.33325 41.0246 17.6906 32.6673 27.9999 32.6673C29.6113 32.6673 31.1751 32.8715 32.6666 33.2553ZM27.9999 30.334C20.2649 30.334 13.9999 24.069 13.9999 16.334C13.9999 8.59898 20.2649 2.33398 27.9999 2.33398C35.7349 2.33398 41.9999 8.59898 41.9999 16.334C41.9999 24.069 35.7349 30.334 27.9999 30.334ZM27.9999 25.6673C33.1566 25.6673 37.3333 21.4907 37.3333 16.334C37.3333 11.1773 33.1566 7.00065 27.9999 7.00065C22.8433 7.00065 18.6666 11.1773 18.6666 16.334C18.6666 21.4907 22.8433 25.6673 27.9999 25.6673Z" fill="black"/>
<g clip-path="url(#clip0_962_6001)">
<path fill-rule="evenodd" clip-rule="evenodd" d="M44.8 51.8C45.2243 51.8 45.6313 51.9686 45.9314 52.2686C46.2314 52.5687 46.4 52.9757 46.4 53.4C46.4 53.8243 46.2314 54.2313 45.9314 54.5314C45.6313 54.8314 45.2243 55 44.8 55C44.3757 55 43.9687 54.8314 43.6686 54.5314C43.3686 54.2313 43.2 53.8243 43.2 53.4C43.2 52.9757 43.3686 52.5687 43.6686 52.2686C43.9687 51.9686 44.3757 51.8 44.8 51.8ZM39.7928 49.4C40.3232 49.4 40.8319 49.6107 41.207 49.9858C41.5821 50.3609 41.7928 50.8696 41.7928 51.4C41.7928 51.9304 41.5821 52.4391 41.207 52.8142C40.8319 53.1893 40.3232 53.4 39.7928 53.4C39.2624 53.4 38.7537 53.1893 38.3786 52.8142C38.0035 52.4391 37.7928 51.9304 37.7928 51.4C37.7928 50.8696 38.0035 50.3609 38.3786 49.9858C38.7537 49.6107 39.2624 49.4 39.7928 49.4ZM49.0552 49.8C49.4795 49.8 49.8865 49.9686 50.1866 50.2686C50.4866 50.5687 50.6552 50.9757 50.6552 51.4C50.6552 51.8243 50.4866 52.2313 50.1866 52.5314C49.8865 52.8314 49.4795 53 49.0552 53C48.6309 53 48.2239 52.8314 47.9238 52.5314C47.6238 52.2313 47.4552 51.8243 47.4552 51.4C47.4552 50.9757 47.6238 50.5687 47.9238 50.2686C48.2239 49.9686 48.6309 49.8 49.0552 49.8ZM50.8 46.4552C51.1183 46.4552 51.4235 46.5816 51.6485 46.8067C51.8736 47.0317 52 47.3369 52 47.6552C52 47.9735 51.8736 48.2787 51.6485 48.5037C51.4235 48.7288 51.1183 48.8552 50.8 48.8552C50.4817 48.8552 50.1765 48.7288 49.9515 48.5037C49.7264 48.2787 49.6 47.9735 49.6 47.6552C49.6 47.3369 49.7264 47.0317 49.9515 46.8067C50.1765 46.5816 50.4817 46.4552 50.8 46.4552ZM38 43.8C38.5304 43.8 39.0391 44.0107 39.4142 44.3858C39.7893 44.7609 40 45.2696 40 45.8C40 46.3304 39.7893 46.8391 39.4142 47.2142C39.0391 47.5893 38.5304 47.8 38 47.8C37.4696 47.8 36.9609 47.5893 36.5858 47.2142C36.2107 46.8391 36 46.3304 36 45.8C36 45.2696 36.2107 44.7609 36.5858 44.3858C36.9609 44.0107 37.4696 43.8 38 43.8ZM50.2288 43.1656C50.441 43.1656 50.6445 43.2499 50.7945 43.3999C50.9445 43.5499 51.0288 43.7534 51.0288 43.9656C51.0288 44.1778 50.9445 44.3813 50.7945 44.5313C50.6445 44.6813 50.441 44.7656 50.2288 44.7656C50.0166 44.7656 49.8131 44.6813 49.6631 44.5313C49.5131 44.3813 49.4288 44.1778 49.4288 43.9656C49.4288 43.7534 49.5131 43.5499 49.6631 43.3999C49.8131 43.2499 50.0166 43.1656 50.2288 43.1656ZM42.4 39C43.0365 39 43.647 39.2529 44.0971 39.7029C44.5471 40.153 44.8 40.7635 44.8 41.4C44.8 42.0365 44.5471 42.647 44.0971 43.0971C43.647 43.5471 43.0365 43.8 42.4 43.8C41.7635 43.8 41.153 43.5471 40.7029 43.0971C40.2529 42.647 40 42.0365 40 41.4C40 40.7635 40.2529 40.153 40.7029 39.7029C41.153 39.2529 41.7635 39 42.4 39ZM48.4 41.4C48.5061 41.4 48.6078 41.4421 48.6828 41.5172C48.7579 41.5922 48.8 41.6939 48.8 41.8C48.8 41.9061 48.7579 42.0078 48.6828 42.0828C48.6078 42.1579 48.5061 42.2 48.4 42.2C48.2939 42.2 48.1922 42.1579 48.1172 42.0828C48.0421 42.0078 48 41.9061 48 41.8C48 41.6939 48.0421 41.5922 48.1172 41.5172C48.1922 41.4421 48.2939 41.4 48.4 41.4Z" fill="black"/>
</g>
<defs>
<clipPath id="clip0_962_6001">
<rect width="16" height="16" fill="white" transform="translate(36 39)"/>
</clipPath>
</defs>
</svg>
