<svg width="56" height="56" viewBox="0 0 56 56" fill="none" xmlns="http://www.w3.org/2000/svg">
<path d="M32.6668 33.2553V38.1306C31.2071 37.6147 29.6365 37.334 28.0002 37.334C20.2682 37.334 14.0002 43.602 14.0002 51.334H9.3335C9.3335 41.0246 17.6908 32.6673 28.0002 32.6673C29.6116 32.6673 31.1754 32.8715 32.6668 33.2553ZM28.0002 30.334C20.2652 30.334 14.0002 24.069 14.0002 16.334C14.0002 8.59899 20.2652 2.33398 28.0002 2.33398C35.7352 2.33398 42.0002 8.59899 42.0002 16.334C42.0002 24.069 35.7352 30.334 28.0002 30.334ZM28.0002 25.6673C33.1568 25.6673 37.3335 21.4907 37.3335 16.334C37.3335 11.1773 33.1568 7.00065 28.0002 7.00065C22.8435 7.00065 18.6668 11.1773 18.6668 16.334C18.6668 21.4907 22.8435 25.6673 28.0002 25.6673Z" fill="black"/>
<path d="M44.8 53.4163C49.5581 53.4163 53.4153 49.5591 53.4153 44.8009C53.4153 40.0428 49.5581 36.1855 44.8 36.1855C40.0418 36.1855 36.1846 40.0428 36.1846 44.8009C36.1846 49.5591 40.0418 53.4163 44.8 53.4163Z" stroke="#000001" stroke-width="4" stroke-linecap="round" stroke-linejoin="round"/>
<path d="M38.7031 50.8972L50.8972 38.7031" stroke="#000001" stroke-width="4" stroke-linecap="round" stroke-linejoin="round"/>
</svg>
