<svg width="56" height="56" viewBox="0 0 56 56" fill="none" xmlns="http://www.w3.org/2000/svg">
<path d="M32.6666 33.2553V38.1306C31.2069 37.6147 29.6363 37.334 28 37.334C20.268 37.334 14 43.602 14 51.334H9.33331C9.33331 41.0246 17.6907 32.6673 28 32.6673C29.6114 32.6673 31.1752 32.8715 32.6666 33.2553ZM28 30.334C20.265 30.334 14 24.069 14 16.334C14 8.59898 20.265 2.33398 28 2.33398C35.735 2.33398 42 8.59898 42 16.334C42 24.069 35.735 30.334 28 30.334ZM28 25.6673C33.1566 25.6673 37.3333 21.4907 37.3333 16.334C37.3333 11.1773 33.1566 7.00065 28 7.00065C22.8433 7.00065 18.6666 11.1773 18.6666 16.334C18.6666 21.4907 22.8433 25.6673 28 25.6673ZM41.5167 46.4671L49.7662 38.2176L53.066 41.5174L41.5167 53.0667L33.2672 44.8172L36.567 41.5174L41.5167 46.4671Z" fill="black"/>
</svg>
